<svg xmlns="http://www.w3.org/2000/svg" viewBox="0 0 512 512" role="img" aria-label="Bantryx">
  <defs>
    <linearGradient id="bg" x1="0" y1="0" x2="1" y2="1">
      <stop offset="0" stop-color="#0f172a"/>
      <stop offset="1" stop-color="#020617"/>
    </linearGradient>
    <radialGradient id="glow" cx="0.5" cy="0.4" r="0.6">
      <stop offset="0" stop-color="#06b6d4" stop-opacity="0.35"/>
      <stop offset="1" stop-color="#06b6d4" stop-opacity="0"/>
    </radialGradient>
    <linearGradient id="mark" x1="0" y1="0" x2="0" y2="1">
      <stop offset="0" stop-color="#67e8f9"/>
      <stop offset="1" stop-color="#06b6d4"/>
    </linearGradient>
  </defs>
  <rect width="512" height="512" fill="url(#bg)"/>
  <rect width="512" height="512" fill="url(#glow)"/>

  <!-- Tier 31 — logo mark is now the Orbitron "B" glyph (outline extracted
       from Orbitron-Bold.ttf via fontTools, UPM 1000, bbox 59..779 × 0..720).
       The transform flips the font's Y-up coordinates into SVG Y-down and
       scales the 720-unit glyph to ~360px centred on the 512 canvas
       (translate(46.5 436) scale(0.5 -0.5) maps the glyph centre 419,360 to
       256,256). Self-contained path so the live /logo.svg favicon renders
       without the Orbitron webfont. The drawn-B + Bebas wordmark lockup is
       retired (see marketing/lib/brand.mjs). -->
  <path transform="translate(46.5 436) scale(0.5 -0.5)" fill="url(#mark)" d="M59 0V720H611Q649 720 680.5 701.0Q712 682 731.0 650.5Q750 619 750 581V440Q750 427 748.0 415.0Q746 403 741 392Q758 369 768.5 344.0Q779 319 779 294V139Q779 101 760.0 69.5Q741 38 709.0 19.0Q677 0 639 0ZM203 133H633Q638 133 642.0 136.5Q646 140 646 145V288Q646 293 642.0 296.5Q638 300 633 300H203Q198 300 194.5 296.5Q191 293 191 288V145Q191 140 194.5 136.5Q198 133 203 133ZM203 433H605Q610 433 613.0 436.5Q616 440 616 445V575Q616 580 613.0 583.5Q610 587 605 587H203Q198 587 194.5 583.5Q191 580 191 575V445Q191 440 194.5 436.5Q198 433 203 433Z"/>
</svg>
